<svg width="81" height="35" viewBox="0 0 81 35" fill="none" xmlns="http://www.w3.org/2000/svg">
<g clip-path="url(#clip0_151_367)">
<g clip-path="url(#clip1_151_367)">
<path d="M0.687988 31.7487C0.687988 31.3211 0.843869 30.9608 1.15482 30.6686C1.46577 30.3765 1.82462 30.2296 2.22974 30.2296C2.57479 30.2296 2.86788 30.3107 3.1082 30.473C4.27892 31.2634 5.5625 31.6586 6.95812 31.6586C7.81384 31.6586 8.47227 31.4923 8.93342 31.1604C9.39538 30.8285 9.62595 30.4268 9.62595 29.9561C9.62595 29.6721 9.52528 29.4238 9.32474 29.2112C9.1234 28.9986 8.85386 28.8249 8.5153 28.6902C8.17675 28.5555 7.78542 28.4305 7.34295 28.3145C6.90048 28.1984 6.43771 28.0767 5.95464 27.9501C5.47157 27.8235 4.98363 27.6953 4.49001 27.5655C3.99639 27.4356 3.52794 27.2539 3.08546 27.0185C2.64218 26.784 2.25004 26.5097 1.90905 26.1965C1.56725 25.8833 1.29527 25.484 1.09312 24.9995C0.890146 24.5151 0.788661 23.9665 0.788661 23.3555C0.788661 22.0287 1.31963 20.9145 2.38157 20.0137C3.4435 19.113 4.85617 18.6626 6.61957 18.6626C7.61006 18.6626 8.63871 18.8143 9.70389 19.1178C10.7699 19.4213 11.5014 19.8425 11.8992 20.3813C12.0868 20.6167 12.1809 20.882 12.1809 21.1782C12.1809 21.5978 12.0112 21.9475 11.6727 22.2291C11.3341 22.5099 10.9542 22.6503 10.5328 22.6503C10.2617 22.6503 9.98724 22.5724 9.70876 22.4149C8.67037 21.8331 7.5378 21.5426 6.31105 21.5426C5.61852 21.5426 5.07862 21.6813 4.69136 21.9581C4.30328 22.2356 4.11005 22.6064 4.11005 23.0722C4.11005 23.353 4.23995 23.5989 4.49894 23.8099C4.75793 24.0201 5.0973 24.1799 5.51541 24.2879C5.93353 24.3958 6.40767 24.5183 6.93782 24.6555C7.46879 24.7926 8.00625 24.9314 8.55184 25.0726C9.09742 25.213 9.63326 25.4053 10.1602 25.6487C10.6871 25.8922 11.158 26.173 11.5736 26.4919C11.9885 26.8108 12.3214 27.236 12.5723 27.7675C12.8231 28.2999 12.9482 28.9069 12.9482 29.5885C12.9482 31.0622 12.4245 32.2559 11.378 33.1688C10.3307 34.0826 8.80595 34.5386 6.80143 34.5386C5.60797 34.5386 4.43318 34.3544 3.27788 33.9876C2.12176 33.62 1.34155 33.1323 0.936423 32.5245C0.771612 32.2924 0.6888 32.0335 0.6888 31.7479" fill="#57CF92"/>
<path d="M13.4563 29.1602C13.3288 27.4626 13.7754 26.0278 14.7975 24.8561C15.8197 23.6851 17.1877 23.0343 18.9015 22.906C19.7694 22.8411 20.5732 22.9198 21.3128 23.1422C22.0524 23.3653 22.5582 23.6956 22.8327 24.1338C22.9341 24.284 22.9926 24.46 23.008 24.6621C23.0356 25.0289 22.9155 25.3365 22.6484 25.5864C22.3813 25.8363 22.0719 25.9735 21.7204 26.0003C21.4354 26.0214 21.1643 25.967 20.9069 25.8355C20.397 25.5653 19.8393 25.4533 19.2336 25.4988C18.343 25.5653 17.6407 25.9159 17.1284 26.548C16.6153 27.181 16.3945 27.9762 16.4667 28.9338C16.539 29.8987 16.8767 30.6598 17.4791 31.2157C18.0816 31.7724 18.8277 32.0167 19.7183 31.9501C20.3248 31.9047 20.8663 31.7018 21.3437 31.3431C21.5791 31.1751 21.8316 31.081 22.1012 31.0607C22.4754 31.0323 22.8116 31.1256 23.1103 31.3407C23.4083 31.5549 23.5715 31.8462 23.5991 32.2122C23.6291 32.6164 23.4992 32.9418 23.2094 33.1893C22.3293 33.9999 21.1862 34.4584 19.7792 34.5639C18.0653 34.693 16.6153 34.2507 15.4291 33.238C14.243 32.2252 13.5854 30.866 13.4571 29.1602" fill="#57CF92"/>
<path d="M24.1535 33.1972L23.6031 20.4487C23.586 20.0519 23.7135 19.7078 23.9871 19.4181C24.2599 19.1284 24.6098 18.9742 25.0377 18.9564C25.4274 18.9393 25.7692 19.0635 26.0622 19.3289C26.3553 19.5942 26.5104 19.9253 26.5275 20.3221L26.7174 24.718C27.0941 24.2213 27.6162 23.7896 28.2844 23.4228C28.9525 23.056 29.71 22.8548 30.5568 22.8183C31.7568 22.7663 32.6734 23.0349 33.3066 23.6233C33.9407 24.2116 34.2817 25.0604 34.3296 26.1697L34.6129 32.746C34.6308 33.151 34.5025 33.4999 34.2297 33.7929C33.9569 34.0858 33.6143 34.2416 33.2019 34.2595C32.7968 34.2773 32.4477 34.1516 32.1546 33.8821C31.8615 33.6135 31.7056 33.276 31.6886 32.8718L31.4531 27.4194C31.4215 26.685 31.2209 26.1722 30.8515 25.88C30.4821 25.5879 29.9601 25.4564 29.2854 25.4856C28.7601 25.5084 28.2844 25.6544 27.8565 25.9247C27.4286 26.1949 27.0803 26.5195 26.8116 26.8984L27.0779 33.0698C27.095 33.4748 26.9675 33.8237 26.6947 34.1167C26.4219 34.4104 26.0793 34.5654 25.6669 34.5833C25.2617 34.6011 24.9126 34.4753 24.6195 34.2059C24.3265 33.9373 24.1706 33.6005 24.1535 33.1956" fill="#57CF92"/>
<path d="M34.9766 29.1803C34.8922 28.1189 35.0456 27.1338 35.4353 26.2265C35.825 25.3193 36.4485 24.5622 37.3051 23.9568C38.1616 23.3514 39.1797 23.0017 40.3585 22.9083C41.5447 22.8142 42.6107 22.9992 43.5557 23.4626C44.5007 23.9259 45.2371 24.5751 45.7648 25.4102C46.2925 26.2452 46.5986 27.1938 46.6831 28.2552C46.7456 29.0481 46.6693 29.8084 46.4525 30.5364C46.2365 31.2643 45.9045 31.9151 45.4587 32.4888C45.0122 33.0625 44.4285 33.534 43.7067 33.9032C42.9858 34.2725 42.1771 34.4924 41.2816 34.5638C40.1028 34.6571 39.0425 34.4721 38.1015 34.0087C37.1605 33.5454 36.425 32.8921 35.8973 32.0498C35.3687 31.2075 35.0626 30.2515 34.9774 29.182M37.9854 28.9442C38.0577 29.8571 38.3711 30.6053 38.9272 31.1896C39.4825 31.7739 40.1994 32.0319 41.0762 31.9621C41.9531 31.8924 42.6237 31.5256 43.0881 30.8601C43.5516 30.1955 43.7481 29.4068 43.6759 28.4938C43.6044 27.589 43.287 26.8481 42.7252 26.272C42.1625 25.6958 41.4432 25.4418 40.5664 25.5116C39.6895 25.5814 39.0222 25.9441 38.5651 26.6014C38.108 27.2587 37.9148 28.0394 37.987 28.9442" fill="#57CF92"/>
<path d="M47.3319 27.5843C47.5349 26.5383 47.9457 25.6311 48.5635 24.8601C49.1814 24.09 49.9851 23.5269 50.9724 23.1722C51.9596 22.8176 53.0337 22.7527 54.1947 22.9775C55.363 23.2039 56.3405 23.6673 57.1272 24.366C57.9139 25.0646 58.4498 25.8875 58.7347 26.8329C59.0197 27.7783 59.0611 28.774 58.8581 29.82C58.7063 30.6006 58.4295 31.3131 58.026 31.9566C57.6225 32.601 57.1297 33.139 56.5459 33.5723C55.9622 34.0057 55.2737 34.3035 54.4797 34.4666C53.6857 34.6297 52.8478 34.6256 51.9669 34.4552C50.8059 34.2304 49.8341 33.7687 49.0507 33.07C48.268 32.3721 47.7338 31.546 47.4504 30.5933C47.1663 29.6406 47.1265 28.6376 47.3311 27.5843M50.2928 28.1589C50.1183 29.0572 50.2206 29.8622 50.5997 30.5739C50.9789 31.2855 51.6 31.7246 52.4638 31.8925C53.3276 32.0597 54.0721 31.8852 54.6965 31.3683C55.3216 30.8514 55.721 30.1438 55.8956 29.2455C56.0685 28.3544 55.9606 27.5559 55.5733 26.8507C55.1852 26.1447 54.5601 25.709 53.6962 25.541C52.8324 25.3738 52.0928 25.545 51.4766 26.0563C50.8603 26.5675 50.4658 27.2687 50.2928 28.1589Z" fill="#57CF92"/>
<path d="M59.1164 33.2353L60.0964 20.5128C60.1272 20.1168 60.2953 19.7905 60.6005 19.5357C60.9058 19.2809 61.272 19.1697 61.699 19.203C62.0879 19.233 62.4127 19.397 62.6716 19.6956C62.9306 19.9942 63.0451 20.3415 63.0151 20.7375L62.0351 33.4601C62.0043 33.8642 61.8354 34.1953 61.5293 34.4542C61.2233 34.7131 60.8644 34.8258 60.4536 34.7942C60.0493 34.7634 59.718 34.597 59.459 34.2943C59.2001 33.9924 59.0864 33.6394 59.1172 33.2353" fill="#57CF92"/>
<path d="M0.687988 15.2358V2.26165C0.687988 1.79991 0.858483 1.40391 1.19947 1.07444C1.54046 0.745787 1.94965 0.581055 2.42865 0.581055C2.90766 0.581055 3.28681 0.745787 3.61562 1.07444C3.94524 1.4031 4.10924 1.7991 4.10924 2.26165V7.03322H11.693V2.26165C11.693 1.79991 11.8627 1.40391 12.2012 1.07444C12.5398 0.745787 12.9538 0.581055 13.4442 0.581055C13.9037 0.581055 14.2967 0.745787 14.6239 1.07444C14.9511 1.4031 15.1142 1.7991 15.1142 2.26165V15.2122C15.1142 15.6821 14.947 16.0838 14.6125 16.4165C14.278 16.75 13.8729 16.9164 13.3979 16.9164C12.923 16.9164 12.53 16.75 12.1955 16.4165C11.8611 16.0838 11.6938 15.6821 11.6938 15.2122V10.0414H4.10924V15.2358C4.10924 15.6983 3.94037 16.0935 3.60344 16.423C3.26651 16.7516 2.85895 16.9164 2.38075 16.9164C1.90256 16.9164 1.52016 16.75 1.18729 16.4165C0.853611 16.0838 0.687988 15.6902 0.687988 15.2358Z" fill="#F8D136"/>
<path d="M29.0622 15.3664L29.0532 6.47005C29.0532 6.05457 29.201 5.70238 29.4989 5.41186C29.7961 5.12216 30.1687 4.97609 30.6153 4.97609C31.0228 4.97609 31.3736 5.12216 31.6675 5.41592C31.9622 5.70968 32.1091 6.06025 32.1091 6.46761V6.63235C32.399 6.20875 32.904 5.80138 33.6249 5.40862C34.3459 5.01586 35.1098 4.81948 35.9168 4.81866C36.7466 4.81866 37.4318 5.00125 37.9709 5.36885C38.51 5.73646 38.8891 6.25744 39.1067 6.93016C39.4672 6.35806 40.0144 5.86143 40.7491 5.44189C41.4831 5.02235 42.2706 4.81136 43.1109 4.81055C44.1931 4.80974 45.0302 5.10269 45.6228 5.68939C46.2155 6.2761 46.5118 7.15332 46.5135 8.32106L46.5208 15.3486C46.5208 15.7714 46.3738 16.13 46.0783 16.4246C45.7828 16.7184 45.4142 16.8661 44.9709 16.8669C44.5512 16.8669 44.1947 16.7208 43.9025 16.427C43.6102 16.1333 43.4641 15.7754 43.4641 15.3518L43.4576 9.38168C43.4576 8.80958 43.3147 8.3592 43.0321 8.03055C42.7488 7.70189 42.3088 7.53797 41.7112 7.53878C41.216 7.53878 40.7548 7.67268 40.3261 7.93966C39.8983 8.20664 39.5581 8.52069 39.3072 8.88099L39.3137 15.3567C39.3137 15.7795 39.1652 16.1382 38.8672 16.4327C38.5692 16.7265 38.199 16.8742 37.7574 16.8742C37.3384 16.8742 36.9845 16.7281 36.693 16.4344C36.4023 16.1406 36.257 15.7827 36.2562 15.3599L36.2497 9.38979C36.2481 8.15957 35.6716 7.54527 34.5196 7.5469C34.0341 7.5469 33.5754 7.68323 33.1443 7.95345C32.7132 8.22449 32.3689 8.54422 32.1108 8.91264L32.1181 15.364C32.1181 15.7868 31.9703 16.1455 31.6723 16.44C31.3744 16.7338 31.0098 16.8815 30.5796 16.8815C30.1566 16.8815 29.7977 16.7354 29.503 16.4417C29.2083 16.1479 29.0613 15.79 29.0605 15.3664" fill="#F8D136"/>
<path d="M47.4824 11.8761C47.2892 10.7725 47.3614 9.72244 47.7 8.7243C48.0385 7.72617 48.6158 6.87978 49.4325 6.18352C50.2493 5.48808 51.2251 5.04013 52.361 4.84132C53.6421 4.61735 54.8128 4.76828 55.8723 5.29413C56.931 5.82079 57.7705 6.64607 58.3892 7.76999C58.7391 8.4484 58.9526 9.00751 59.0297 9.44734C59.0947 9.81819 59.0135 10.1623 58.787 10.4804C58.5596 10.7985 58.2536 10.9916 57.8679 11.059L50.8038 12.2965C51.0376 13.0431 51.4906 13.6176 52.1629 14.0209C52.8343 14.4242 53.6372 14.5443 54.5717 14.3804C55.3519 14.2441 56.0599 13.9252 56.6956 13.4237C56.8783 13.2881 57.0666 13.2037 57.2598 13.1697C57.5919 13.1112 57.9093 13.177 58.2138 13.3668C58.5174 13.5567 58.6993 13.8213 58.7586 14.1605C58.8138 14.477 58.7082 14.7918 58.4411 15.1051C58.174 15.4183 57.8135 15.6885 57.3597 15.9149C56.9059 16.1413 56.4439 16.3337 55.9746 16.4919C55.5046 16.6493 55.0653 16.7646 54.6561 16.836C52.8879 17.146 51.3299 16.8481 49.9814 15.9425C48.6328 15.0377 47.8006 13.6817 47.484 11.8761M50.4011 10.2678L56.0412 9.28018C55.9738 8.98966 55.8602 8.71376 55.6986 8.45083C55.537 8.18872 55.3276 7.9469 55.0702 7.72536C54.8128 7.50382 54.4848 7.3472 54.0862 7.25388C53.6884 7.16056 53.2532 7.15488 52.7823 7.23765C52.3342 7.31637 51.9445 7.46406 51.6132 7.68154C51.2812 7.89902 51.0295 8.15383 50.8582 8.44596C50.6869 8.7381 50.5643 9.03835 50.4904 9.3451C50.4165 9.65265 50.3873 9.95939 50.4011 10.2678Z" fill="#F8D136"/>
<path d="M15.996 11.2001C15.9083 10.0957 16.0675 9.07079 16.4734 8.12703C16.8785 7.18326 17.5272 6.39612 18.4187 5.76559C19.3101 5.13587 20.3688 4.77151 21.5947 4.67494C22.8288 4.57756 23.9378 4.76989 24.921 5.2511C25.9042 5.73313 26.6698 6.40829 27.2194 7.27659C27.7682 8.14569 28.0865 9.13165 28.1742 10.2369C28.2391 11.0614 28.1596 11.8526 27.9347 12.6105C27.7098 13.3685 27.3647 14.0452 26.9003 14.6417C26.436 15.2381 25.8287 15.7291 25.0777 16.1129C24.3275 16.4968 23.4864 16.7264 22.5552 16.7994C21.3284 16.8968 20.2259 16.7037 19.2468 16.2217C18.2677 15.7396 17.5029 15.0604 16.9532 14.184C16.4036 13.3076 16.0845 12.3135 15.9968 11.201M19.1258 10.9535C19.2013 11.9029 19.5277 12.6811 20.1057 13.2889C20.6838 13.8967 21.4291 14.1645 22.3417 14.0923C23.2542 14.0201 23.9516 13.6379 24.4347 12.9465C24.9169 12.2551 25.1215 11.4347 25.046 10.4852C24.9713 9.54389 24.6417 8.77379 24.0563 8.1741C23.471 7.5744 22.7224 7.31067 21.8099 7.38289C20.8973 7.45511 20.2032 7.83327 19.7274 8.51654C19.2516 9.19982 19.0511 10.0129 19.1258 10.9535Z" fill="#F8D136"/>
<path d="M69.0246 31.9703C68.8972 31.9208 68.7592 31.8948 68.6138 31.8948C68.4336 31.8948 68.2834 31.9403 68.164 32.0279C68.0447 32.1172 67.9854 32.2405 67.9854 32.3996C67.9854 32.5497 68.0447 32.669 68.1657 32.7582C68.2858 32.8459 68.4368 32.8897 68.6138 32.8897C68.76 32.8897 68.8972 32.8646 69.0246 32.8142C69.1505 32.7647 69.2503 32.6925 69.3194 32.5976V32.1853C69.2495 32.0904 69.1505 32.0198 69.0246 31.9703ZM69.0246 31.9703C68.8972 31.9208 68.7592 31.8948 68.6138 31.8948C68.4336 31.8948 68.2834 31.9403 68.164 32.0279C68.0447 32.1172 67.9854 32.2405 67.9854 32.3996C67.9854 32.5497 68.0447 32.669 68.1657 32.7582C68.2858 32.8459 68.4368 32.8897 68.6138 32.8897C68.76 32.8897 68.8972 32.8646 69.0246 32.8142C69.1505 32.7647 69.2503 32.6925 69.3194 32.5976V32.1853C69.2495 32.0904 69.1505 32.0198 69.0246 31.9703ZM69.0246 31.9703C68.8972 31.9208 68.7592 31.8948 68.6138 31.8948C68.4336 31.8948 68.2834 31.9403 68.164 32.0279C68.0447 32.1172 67.9854 32.2405 67.9854 32.3996C67.9854 32.5497 68.0447 32.669 68.1657 32.7582C68.2858 32.8459 68.4368 32.8897 68.6138 32.8897C68.76 32.8897 68.8972 32.8646 69.0246 32.8142C69.1505 32.7647 69.2503 32.6925 69.3194 32.5976V32.1853C69.2495 32.0904 69.1505 32.0198 69.0246 31.9703ZM69.0246 31.9703C68.8972 31.9208 68.7592 31.8948 68.6138 31.8948C68.4336 31.8948 68.2834 31.9403 68.164 32.0279C68.0447 32.1172 67.9854 32.2405 67.9854 32.3996C67.9854 32.5497 68.0447 32.669 68.1657 32.7582C68.2858 32.8459 68.4368 32.8897 68.6138 32.8897C68.76 32.8897 68.8972 32.8646 69.0246 32.8142C69.1505 32.7647 69.2503 32.6925 69.3194 32.5976V32.1853C69.2495 32.0904 69.1505 32.0198 69.0246 31.9703ZM79.1764 27.7952H65.2486C64.4659 27.7952 63.8311 28.4298 63.8311 29.212V32.9335C63.8311 33.7158 64.4659 34.3504 65.2486 34.3504H79.1764C79.959 34.3504 80.5939 33.7158 80.5939 32.9335V29.212C80.5939 28.4298 79.959 27.7952 79.1764 27.7952ZM66.3389 33.319C66.235 33.4237 66.1124 33.4748 65.9687 33.4748C65.825 33.4748 65.7008 33.4237 65.5969 33.319C65.493 33.2159 65.4426 33.0926 65.4426 32.9522C65.4426 32.8118 65.4938 32.6885 65.5969 32.5838C65.7 32.4799 65.825 32.428 65.9687 32.428C66.1124 32.428 66.235 32.4807 66.3389 32.5838C66.4429 32.6885 66.4948 32.8102 66.4948 32.9522C66.4948 33.0942 66.4421 33.2159 66.3389 33.319ZM70.197 33.0033C70.197 33.125 70.1548 33.2289 70.072 33.3125C69.9883 33.3961 69.8877 33.4383 69.7683 33.4383H69.7001C69.6758 33.4383 69.6449 33.4342 69.6092 33.4237C69.5727 33.4123 69.5329 33.3953 69.4858 33.3709C69.4403 33.3466 69.4005 33.3068 69.3681 33.2516C69.3356 33.1965 69.3185 33.1315 69.3185 33.0561C69.2041 33.1892 69.0531 33.2938 68.8679 33.3693C68.682 33.4448 68.4791 33.4813 68.2615 33.4813C68.1251 33.4813 67.9903 33.4569 67.8572 33.4107C67.724 33.3636 67.6006 33.2971 67.4869 33.2094C67.3725 33.1218 67.2815 33.0058 67.2117 32.8605C67.1419 32.7161 67.107 32.5546 67.107 32.3768C67.107 32.2267 67.1313 32.0904 67.1768 31.967C67.2223 31.8437 67.2848 31.7415 67.3611 31.6611C67.4374 31.58 67.5267 31.5126 67.6274 31.4574C67.7281 31.4022 67.8312 31.3625 67.9375 31.3381C68.0439 31.313 68.1519 31.3016 68.2607 31.3016C68.4831 31.3016 68.6885 31.3357 68.8744 31.4063C69.0604 31.4769 69.2073 31.5767 69.3185 31.7066V31.257C69.3185 31.0882 69.252 30.9519 69.1188 30.8504C68.9857 30.7482 68.8087 30.6971 68.587 30.6971C68.3094 30.6971 68.0609 30.7693 67.8425 30.9121C67.789 30.9429 67.7362 30.9592 67.6834 30.9592C67.5982 30.9592 67.5219 30.9283 67.452 30.8658C67.3838 30.8034 67.3497 30.7214 67.3497 30.6232C67.3497 30.5664 67.3668 30.5096 67.3993 30.4504C67.4918 30.3027 67.6785 30.1866 67.9595 30.103C68.2404 30.0211 68.4994 29.9781 68.738 29.9781C68.9378 29.9781 69.1221 30.0008 69.2885 30.043C69.4541 30.0852 69.6076 30.1534 69.7496 30.2483C69.8901 30.3416 69.9989 30.4739 70.0768 30.6427C70.1564 30.8115 70.1962 31.0111 70.1962 31.2424V33.0009L70.197 33.0033ZM73.3219 33.1818C73.0654 33.3815 72.7122 33.4821 72.2616 33.4821C72.0132 33.4821 71.7542 33.4423 71.4806 33.3644C71.2086 33.2849 71.0251 33.1778 70.9317 33.0415C70.8903 32.9879 70.8709 32.9238 70.8709 32.8516C70.8709 32.7509 70.9074 32.6657 70.9813 32.5951C71.0551 32.5245 71.1371 32.4888 71.2305 32.4888C71.3003 32.4888 71.358 32.5043 71.4075 32.5367C71.7176 32.7152 72.0188 32.8045 72.3046 32.8045C72.4889 32.8045 72.6294 32.772 72.7244 32.7055C72.8194 32.639 72.8664 32.5521 72.8664 32.4434C72.8664 32.3695 72.8307 32.3087 72.7601 32.2616C72.6903 32.2146 72.6001 32.1764 72.4881 32.1496C72.3761 32.1212 72.251 32.0961 72.1163 32.0742C71.9815 32.0514 71.8386 32.0157 71.6868 31.9679C71.5366 31.9184 71.4018 31.8599 71.2857 31.791C71.168 31.7212 71.073 31.6222 71.0007 31.4948C70.9269 31.3657 70.8903 31.214 70.8903 31.0371C70.8903 30.7425 71.0137 30.4918 71.2589 30.2873C71.5025 30.0836 71.8362 29.9797 72.2575 29.9797C72.497 29.9797 72.7382 30.0178 72.9809 30.0933C73.222 30.1688 73.386 30.2678 73.4745 30.3919C73.5103 30.4414 73.5281 30.4999 73.5281 30.5664C73.5281 30.6581 73.4924 30.7368 73.4234 30.8017C73.3528 30.8667 73.2732 30.8999 73.1823 30.8999C73.1238 30.8999 73.0686 30.8861 73.0166 30.8561C72.7901 30.7247 72.5376 30.6581 72.2567 30.6581C72.1008 30.6581 71.9742 30.6889 71.8768 30.7514C71.7802 30.8139 71.7323 30.8902 71.7323 30.9835C71.7323 31.0476 71.7737 31.1012 71.8557 31.1426C71.9377 31.1848 72.0318 31.2189 72.1349 31.2456C72.2397 31.2724 72.359 31.2968 72.4922 31.3179C72.6253 31.339 72.7674 31.3763 72.92 31.4282C73.0735 31.481 73.2066 31.5426 73.3203 31.6165C73.4348 31.6903 73.5273 31.795 73.5996 31.9313C73.6718 32.0677 73.7076 32.2275 73.7076 32.4117C73.7076 32.7234 73.5801 32.9798 73.3235 33.181M75.2388 33.0025C75.2388 33.1242 75.1949 33.2281 75.1097 33.3117C75.0244 33.3953 74.9197 33.4375 74.7963 33.4375C74.6729 33.4375 74.5722 33.3953 74.4886 33.3117C74.4033 33.2281 74.3611 33.125 74.3611 33.0025V30.452C74.3611 30.3327 74.4033 30.2321 74.4902 30.1485C74.5755 30.0665 74.6818 30.0235 74.8109 30.0235C74.927 30.0235 75.0277 30.0657 75.1113 30.1509C75.1965 30.2345 75.2388 30.3351 75.2388 30.4512V33.0017V33.0025ZM75.1689 29.5504C75.0666 29.6527 74.9424 29.7046 74.7963 29.7046C74.6501 29.7046 74.5308 29.6519 74.4277 29.5504C74.323 29.4482 74.2702 29.3248 74.2702 29.182C74.2702 29.0392 74.323 28.9158 74.4244 28.8152C74.5284 28.713 74.6526 28.6635 74.7963 28.6635C74.94 28.6635 75.0674 28.713 75.1689 28.8152C75.2712 28.9158 75.3224 29.0376 75.3224 29.182C75.3224 29.3265 75.2712 29.4482 75.1689 29.5504ZM78.9831 33.0025C78.9831 33.1242 78.9417 33.2281 78.8581 33.3117C78.7761 33.3953 78.6738 33.4375 78.5545 33.4375H78.4879C78.4627 33.4375 78.4327 33.4334 78.397 33.4229C78.3604 33.4115 78.319 33.3945 78.2736 33.3701C78.2265 33.3458 78.1883 33.306 78.1558 33.2508C78.1234 33.1956 78.1063 33.1307 78.1063 33.0553C77.9918 33.1883 77.8408 33.293 77.6557 33.3685C77.4698 33.444 77.2676 33.4805 77.0492 33.4805C76.9128 33.4805 76.7781 33.4561 76.6449 33.4099C76.5118 33.3628 76.3884 33.2963 76.2747 33.2086C76.1594 33.121 76.0677 33.0049 75.9979 32.8597C75.9297 32.7152 75.8948 32.5538 75.8948 32.376C75.8948 32.2259 75.9175 32.0896 75.9646 31.9662C76.01 31.8429 76.0709 31.7406 76.1489 31.6603C76.2252 31.5792 76.3145 31.5118 76.4152 31.4566C76.5158 31.4014 76.6189 31.3617 76.7253 31.3373C76.8317 31.3122 76.9396 31.3008 77.0484 31.3008C77.2709 31.3008 77.4755 31.3349 77.6622 31.4055C77.8481 31.4761 77.9951 31.5759 78.1063 31.7057V31.2562C78.1063 31.0874 78.0397 30.9511 77.9066 30.8496C77.7718 30.7474 77.5948 30.6962 77.3748 30.6962C77.0971 30.6962 76.8471 30.7685 76.6303 30.9113C76.5767 30.9421 76.5223 30.9584 76.4712 30.9584C76.3859 30.9584 76.308 30.9275 76.2398 30.865C76.1716 30.8026 76.1367 30.7206 76.1367 30.6224C76.1367 30.5656 76.1537 30.5088 76.1878 30.4496C76.2796 30.3019 76.4671 30.1858 76.748 30.1022C77.0289 30.0203 77.2879 29.9773 77.5266 29.9773C77.7263 29.9773 77.9098 30 78.0771 30.0422C78.2427 30.0844 78.3961 30.1525 78.5366 30.2475C78.6771 30.3408 78.7875 30.4731 78.8654 30.6419C78.945 30.8107 78.9831 31.0103 78.9831 31.2416V33.0001V33.0025ZM77.8108 31.9695C77.6849 31.92 77.5469 31.894 77.4008 31.894C77.2205 31.894 77.0704 31.9395 76.951 32.0271C76.8317 32.1164 76.7708 32.2397 76.7708 32.3988C76.7708 32.5489 76.8317 32.6682 76.9526 32.7574C77.0728 32.8451 77.2222 32.8889 77.4008 32.8889C77.5469 32.8889 77.6841 32.8637 77.8108 32.8134C77.9382 32.7639 78.0373 32.6917 78.1071 32.5968V32.1845C78.0373 32.0896 77.9382 32.019 77.8108 31.9695ZM69.0254 31.9695C68.898 31.92 68.76 31.894 68.6146 31.894C68.4344 31.894 68.2842 31.9395 68.1649 32.0271C68.0455 32.1164 67.9862 32.2397 67.9862 32.3988C67.9862 32.5489 68.0455 32.6682 68.1665 32.7574C68.2866 32.8451 68.4376 32.8889 68.6146 32.8889C68.7608 32.8889 68.898 32.8637 69.0254 32.8134C69.1513 32.7639 69.2512 32.6917 69.3202 32.5968V32.1845C69.2503 32.0896 69.1513 32.019 69.0254 31.9695ZM69.0254 31.9695C68.898 31.92 68.76 31.894 68.6146 31.894C68.4344 31.894 68.2842 31.9395 68.1649 32.0271C68.0455 32.1164 67.9862 32.2397 67.9862 32.3988C67.9862 32.5489 68.0455 32.6682 68.1665 32.7574C68.2866 32.8451 68.4376 32.8889 68.6146 32.8889C68.7608 32.8889 68.898 32.8637 69.0254 32.8134C69.1513 32.7639 69.2512 32.6917 69.3202 32.5968V32.1845C69.2503 32.0896 69.1513 32.019 69.0254 31.9695ZM69.0254 31.9695C68.898 31.92 68.76 31.894 68.6146 31.894C68.4344 31.894 68.2842 31.9395 68.1649 32.0271C68.0455 32.1164 67.9862 32.2397 67.9862 32.3988C67.9862 32.5489 68.0455 32.6682 68.1665 32.7574C68.2866 32.8451 68.4376 32.8889 68.6146 32.8889C68.7608 32.8889 68.898 32.8637 69.0254 32.8134C69.1513 32.7639 69.2512 32.6917 69.3202 32.5968V32.1845C69.2503 32.0896 69.1513 32.019 69.0254 31.9695ZM69.0254 31.9695C68.898 31.92 68.76 31.894 68.6146 31.894C68.4344 31.894 68.2842 31.9395 68.1649 32.0271C68.0455 32.1164 67.9862 32.2397 67.9862 32.3988C67.9862 32.5489 68.0455 32.6682 68.1665 32.7574C68.2866 32.8451 68.4376 32.8889 68.6146 32.8889C68.7608 32.8889 68.898 32.8637 69.0254 32.8134C69.1513 32.7639 69.2512 32.6917 69.3202 32.5968V32.1845C69.2503 32.0896 69.1513 32.019 69.0254 31.9695ZM69.0254 31.9695C68.898 31.92 68.76 31.894 68.6146 31.894C68.4344 31.894 68.2842 31.9395 68.1649 32.0271C68.0455 32.1164 67.9862 32.2397 67.9862 32.3988C67.9862 32.5489 68.0455 32.6682 68.1665 32.7574C68.2866 32.8451 68.4376 32.8889 68.6146 32.8889C68.7608 32.8889 68.898 32.8637 69.0254 32.8134C69.1513 32.7639 69.2512 32.6917 69.3202 32.5968V32.1845C69.2503 32.0896 69.1513 32.019 69.0254 31.9695Z" fill="#57CF92"/>
<path d="M68.4814 7.54522C68.5245 7.42431 68.5456 7.29609 68.5456 7.16057C68.5456 6.43429 67.961 5.84271 67.2271 5.84271C66.4931 5.84271 65.9086 6.43429 65.9086 7.16057C65.9086 7.88686 66.5004 8.47843 67.2271 8.47843C67.6192 8.47843 67.9683 8.31451 68.1965 8.04347L69.8576 8.9913L69.2592 10.8504C69.2308 10.9291 69.1447 10.9713 69.0668 10.9502L64.9822 9.63968C64.9035 9.61128 64.8613 9.52526 64.8824 9.44735L66.1944 5.36474C66.2228 5.28603 66.308 5.24383 66.3868 5.26493L70.4713 6.57549C70.5493 6.60389 70.5996 6.68991 70.5712 6.76781L70.0362 8.43542L68.4822 7.54441L68.4814 7.54522Z" fill="#57CF92"/>
<path d="M70.9339 10.3449L69.9077 10.7157L70.364 9.28345L70.9485 9.61778V9.62509C70.8771 9.86691 70.8698 10.1095 70.9339 10.3449Z" fill="#57CF92"/>
<path d="M75.4245 8.55719L74.2481 12.2195C74.184 12.4191 73.9769 12.5254 73.7772 12.4621L70.1562 11.3008L71.2393 10.9089C71.396 11.0874 71.603 11.2083 71.8312 11.2797C71.9594 11.3228 72.0877 11.3365 72.216 11.3365C72.501 11.3365 72.7721 11.244 73.0003 11.0801C73.2284 10.9162 73.3997 10.6809 73.4849 10.396C73.5921 10.0544 73.5564 9.69815 73.3851 9.3841C73.2211 9.07086 72.9434 8.84283 72.6008 8.74302C72.259 8.6359 71.9026 8.67161 71.5884 8.84284C71.4528 8.91425 71.3318 9.00676 71.2393 9.12037L70.5411 8.72841L71.0469 7.15412C71.111 6.9618 71.318 6.85468 71.5178 6.9123L75.1818 8.08815C75.3815 8.15226 75.4887 8.36649 75.4245 8.55881V8.55719Z" fill="#57CF92"/>
<path d="M67.1274 12.3315C67.0405 12.1676 67.0218 11.9809 67.0754 11.8024C67.129 11.623 67.2484 11.4786 67.4132 11.3893C67.5155 11.3358 67.6275 11.3074 67.7404 11.3074C67.8077 11.3074 67.8759 11.3187 67.9417 11.3382C68.3079 11.4478 68.5173 11.8373 68.4077 12.2041C68.3533 12.381 68.2324 12.5279 68.0692 12.6147C67.906 12.7031 67.7184 12.7218 67.5398 12.6682C67.362 12.6147 67.2159 12.4938 67.1274 12.3307" fill="#F8D136"/>
<path d="M68.4641 13.3214L67.744 15.5603C67.6806 15.7567 67.4704 15.8654 67.2747 15.8021L63.6099 14.6263C63.4142 14.563 63.3062 14.3536 63.3679 14.1572L64.5444 10.4942C64.6077 10.2986 64.818 10.1907 65.0152 10.254L67.01 10.895C66.7494 11.0646 66.5594 11.3186 66.4685 11.6197C66.3662 11.9605 66.4011 12.3192 66.5684 12.6316C66.7381 12.9441 67.0157 13.1729 67.3551 13.2751C67.4817 13.3141 67.6133 13.3328 67.7407 13.3328C67.9364 13.3328 68.1304 13.2881 68.3107 13.2021L68.4625 13.323L68.4641 13.3214Z" fill="#57CF92"/>
<path d="M71.1031 16.0334C70.7345 15.9222 70.5266 15.5343 70.637 15.1659C70.6906 14.989 70.81 14.8421 70.9748 14.7553C71.0771 14.7001 71.1891 14.6733 71.302 14.6733C71.3693 14.6733 71.4375 14.6823 71.5033 14.7017C71.6811 14.7569 71.8281 14.8746 71.9157 15.0401C71.9709 15.1424 71.9977 15.2544 71.9977 15.3672C71.9977 15.4353 71.9888 15.5019 71.9677 15.5676C71.8565 15.9344 71.4684 16.143 71.1022 16.0334" fill="#F8D136"/>
<path d="M73.8438 13.4797L72.6674 17.1412C72.6041 17.3376 72.3938 17.4447 72.1965 17.383L68.5333 16.2072C68.3368 16.1439 68.2297 15.9337 68.2914 15.7365L68.9449 13.7037L70.1676 14.6767C70.11 14.7716 70.0645 14.8731 70.032 14.9842C69.8193 15.6854 70.2179 16.4271 70.9186 16.6381C71.0469 16.677 71.1751 16.694 71.3018 16.694C71.5884 16.694 71.8612 16.6015 72.0861 16.4376C72.3118 16.2737 72.4855 16.0367 72.5732 15.7519C72.6755 15.4119 72.6406 15.054 72.4733 14.7416C72.3053 14.4284 72.0252 14.2003 71.6866 14.0981C71.3481 13.995 70.9884 14.0307 70.6758 14.1979C70.6572 14.2076 70.6401 14.2182 70.6223 14.2304L69.1519 13.0594L69.4686 12.075C69.5319 11.8787 69.7422 11.7699 69.9395 11.8332L73.6027 13.0091C73.7991 13.0724 73.9063 13.2825 73.8446 13.4797" fill="#57CF92"/>
<path d="M80.2973 9.65594C79.8208 10.0755 79.0949 10.0284 78.6752 9.55207L72.3783 2.39553L63.0766 4.25952C62.4547 4.38368 61.8498 3.98037 61.7256 3.35877C61.5998 2.73635 62.0033 2.13179 62.6252 2.00844L72.5374 0.0227242C72.6779 -0.00486648 72.8199 -0.00648946 72.9539 0.0162323C73.0359 0.0251587 73.1179 0.043823 73.1966 0.0714137C73.3761 0.133899 73.5433 0.241827 73.6789 0.39601L80.4013 8.03458C80.821 8.51093 80.7739 9.2364 80.2973 9.65594Z" fill="#F8D136"/>
<path d="M67.9261 7.16063C67.9261 7.18173 67.9261 7.20364 67.9188 7.22474C67.9042 7.43167 67.7905 7.61669 67.6338 7.7238C67.5193 7.80901 67.3772 7.85932 67.2279 7.85932C66.843 7.85932 66.5361 7.54609 66.5361 7.16063C66.5361 6.77517 66.8422 6.46924 67.2279 6.46924C67.6135 6.46924 67.9261 6.77598 67.9261 7.16063Z" fill="#F8D136"/>
<path d="M71.6043 10.3377C71.5175 10.1746 71.4988 9.9871 71.5508 9.8102C71.606 9.63086 71.7237 9.4856 71.8885 9.39715C71.9916 9.34359 72.1028 9.31519 72.2173 9.31519C72.2831 9.31519 72.3521 9.32492 72.4178 9.34602C72.5956 9.39796 72.7418 9.51887 72.8303 9.68198C72.8855 9.78423 72.9123 9.89702 72.9123 10.0106C72.9123 10.078 72.9033 10.1462 72.8839 10.2119C72.7734 10.5779 72.3846 10.7872 72.016 10.6752C71.839 10.6217 71.692 10.5024 71.6052 10.3377" fill="#F8D136"/>
</g>
</g>
<defs>
<clipPath id="clip0_151_367">
<rect width="80" height="34.8" fill="white" transform="translate(0.687988)"/>
</clipPath>
<clipPath id="clip1_151_367">
<rect width="80" height="34.8" fill="white" transform="translate(0.687988)"/>
</clipPath>
</defs>
</svg>
