<svg width="130" height="104" fill="none" xmlns="http://www.w3.org/2000/svg"><g clip-path="url(#a)"><path d="m69.06 31.768-7.041 6.527 6.213 5.201-3.54 5.28-4.886-4.608-.057 3.206-6.599.749-.403-20.232 7.386-.883-.077 4.549 4.06-5.605 4.943 5.816ZM85.487 27.814c.096 2.572.173 4.626.212 6.18.038 1.556.076 2.765.096 3.61 0 .844.019 1.382.019 1.67v.403c0 .979-.058 1.977-.23 2.937a7.538 7.538 0 0 1-.924 2.553 6.517 6.517 0 0 1-1.808 1.957c-.77.538-1.713.922-2.867 1.152-1.75.346-3.25.365-4.52.096-1.27-.269-2.309-.768-3.117-1.516a6.35 6.35 0 0 1-1.77-2.803 11.21 11.21 0 0 1-.5-3.743v-.25c0-.172 0-.518.02-1.055.019-.538.038-1.286.057-2.265 0-.98.058-2.265.097-3.897.057-1.632.115-3.609.173-5.931l7.213 1.267-.654 11.824c-.077.384-.057.787 0 1.17.039.25.135.5.231.73a.975.975 0 0 0 .731.576c.212.039.462-.173.731-.595.058-.096.096-.211.154-.307a4.63 4.63 0 0 0 .25-1.017c.096-.595.116-1.19.077-1.785l-.538-9.656 6.848-1.267.019-.038ZM89.315 27.18l9.637 7.986.231-8.331 7.522.5-1.174 19.194-9.657-4.798.347 5.93-7.233.462.327-20.942ZM123.94 35.204a2.44 2.44 0 0 0-1.115-1.248 3.628 3.628 0 0 0-1.732-.384c-.673 0-1.327.154-1.942.404a6.55 6.55 0 0 0-1.847 1.132 5.607 5.607 0 0 0-1.366 1.785 5.169 5.169 0 0 0-.539 2.4c0 .825.116 1.478.385 1.977.231.46.597.825 1.058 1.075.443.21.924.326 1.424.288a3.877 3.877 0 0 0 1.539-.384c.5-.23.961-.538 1.365-.902.404-.365.712-.807.924-1.306l-3.578.672.404-4.05 11.003-1.382a8.163 8.163 0 0 1-.154 3.129 12.978 12.978 0 0 1-1 2.821 20.033 20.033 0 0 1-1.347 2.304c-.365.537-.75 1.056-1.173 1.555-.308.345-.481.537-.52.575a9.523 9.523 0 0 1-2.212 1.594c-.885.46-1.827.806-2.789 1.036-1 .23-2.039.346-3.078.307a9.45 9.45 0 0 1-3.02-.556 7.92 7.92 0 0 1-2.655-1.574 7.623 7.623 0 0 1-1.981-2.745 10.673 10.673 0 0 1-.981-3.762 11.661 11.661 0 0 1 1.674-6.93 13.31 13.31 0 0 1 2.269-2.802 13.502 13.502 0 0 1 2.963-2.131 12.915 12.915 0 0 1 3.462-1.267c.039 0 .212-.02.539-.058a8.816 8.816 0 0 1 1.424 0c.711.058 1.404.173 2.096.365.885.25 1.732.614 2.52 1.056a12.181 12.181 0 0 1 2.693 2.054l-4.713 4.971v-.019Z" fill="#FCE4C9"/><path d="m68.578 31.154-7.04 6.526 6.213 5.202-3.54 5.279-4.886-4.607-.057 3.206-6.598.748-.404-20.232 7.386-.883-.077 4.55 4.06-5.605 4.943 5.816ZM84.987 27.2c.096 2.572.173 4.626.211 6.2.039 1.555.077 2.764.096 3.59 0 .844.02 1.4.02 1.67v.402c0 .98-.058 1.977-.231 2.937a7.537 7.537 0 0 1-.924 2.553 6.519 6.519 0 0 1-1.808 1.958c-.77.538-1.712.922-2.866 1.152-1.75.345-3.25.365-4.52.096-1.27-.269-2.309-.768-3.117-1.517a6.35 6.35 0 0 1-1.77-2.802 10.739 10.739 0 0 1-.5-3.743v-.25c0-.172 0-.518.02-1.055.019-.538.038-1.286.057-2.265 0-.98.058-2.265.096-3.897.058-1.632.116-3.609.173-5.931l7.214 1.266-.654 11.825c-.077.384-.058.787 0 1.17.039.25.135.5.231.73.038.096.096.173.154.25a.975.975 0 0 0 .577.326c.212.038.462-.173.73-.595.059-.096.097-.211.155-.307.115-.327.211-.672.25-1.018a7.94 7.94 0 0 0 .077-1.785l-.539-9.674 6.848-1.267.02-.02ZM88.834 26.566l9.637 7.985.231-8.33 7.522.499-1.174 19.195-9.656-4.799.346 5.932-7.233.46.327-20.942ZM123.46 34.61a2.445 2.445 0 0 0-1.116-1.249 3.626 3.626 0 0 0-1.731-.383c-.673 0-1.327.153-1.943.403a6.56 6.56 0 0 0-1.847 1.132 5.893 5.893 0 0 0-1.366 1.785 5.168 5.168 0 0 0-.538 2.4c0 .825.115 1.478.385 1.977.23.46.596.825 1.058 1.075.442.23.942.326 1.423.288a3.873 3.873 0 0 0 1.539-.384c.5-.23.962-.538 1.366-.902.404-.365.712-.807.923-1.306l-3.578.672.404-4.05 10.984-1.382a8.163 8.163 0 0 1-.154 3.129c-.231.979-.558 1.92-1 2.821a17.112 17.112 0 0 1-1.347 2.304c-.365.537-.75 1.056-1.173 1.555-.308.345-.481.537-.519.576a9.532 9.532 0 0 1-2.213 1.593c-.884.46-1.827.806-2.789 1.036-1 .23-2.039.346-3.078.307a9.452 9.452 0 0 1-3.02-.556c-.981-.365-1.885-.883-2.654-1.574a7.627 7.627 0 0 1-1.982-2.745 10.673 10.673 0 0 1-.981-3.762c-.077-1.21 0-2.438.308-3.628a11.83 11.83 0 0 1 1.366-3.302 13.283 13.283 0 0 1 2.27-2.802 13.476 13.476 0 0 1 2.962-2.131 12.87 12.87 0 0 1 3.463-1.248c.038 0 .211-.019.538-.057.481-.039.943-.058 1.424 0 .711.057 1.404.172 2.096.364.885.25 1.732.614 2.52 1.056a12.21 12.21 0 0 1 2.694 2.054l-4.713 4.952.019-.019Z" fill="#60547C"/><path d="m66.424 30.904-7.04 6.527 6.213 5.202-3.52 5.278-4.887-4.607-.058 3.206-6.598.749-.404-20.232 7.387-.883-.077 4.55 4.06-5.606 4.943 5.816h-.02ZM82.851 26.95c.097 2.572.174 4.626.212 6.181.038 1.555.077 2.764.096 3.609 0 .844.02 1.401.02 1.67v.403c0 .979-.058 1.977-.231 2.937a7.538 7.538 0 0 1-.924 2.553 6.518 6.518 0 0 1-1.808 1.958c-.77.537-1.712.921-2.866 1.151-1.75.346-3.251.365-4.52.096-1.27-.268-2.31-.768-3.117-1.516a6.35 6.35 0 0 1-1.77-2.803 10.739 10.739 0 0 1-.5-3.743v-.25c0-.172 0-.517.02-1.055 0-.538.038-1.286.057-2.265 0-.979.058-2.265.096-3.897.058-1.631.115-3.608.173-5.931l7.214 1.267-.654 11.824c-.077.384-.058.787 0 1.171.038.25.135.5.23.73a.975.975 0 0 0 .731.576c.212.038.462-.173.732-.596.057-.096.096-.21.154-.307.115-.326.211-.672.25-1.017.096-.595.115-1.19.077-1.785l-.539-9.656 6.848-1.267.02-.038ZM86.68 26.317l9.637 7.985.23-8.33 7.522.498-1.173 19.196-9.657-4.8.346 5.932-7.232.46.327-20.941ZM121.305 34.36a2.44 2.44 0 0 0-1.115-1.248 3.628 3.628 0 0 0-1.732-.384c-.673 0-1.327.154-1.943.403a6.557 6.557 0 0 0-1.846 1.133 5.607 5.607 0 0 0-1.366 1.785 5.156 5.156 0 0 0-.539 2.4c0 .825.116 1.477.385 1.976.231.46.616.826 1.058 1.075.443.23.943.327 1.424.288a3.877 3.877 0 0 0 1.539-.384c.5-.23.961-.537 1.365-.902s.712-.806.924-1.286l-3.578.672.404-4.05 11.003-1.383a8.163 8.163 0 0 1-.154 3.13c-.212.978-.558 1.919-1 2.821a19.543 19.543 0 0 1-1.347 2.303c-.365.538-.75 1.056-1.173 1.555-.308.346-.481.538-.52.576a9.142 9.142 0 0 1-2.212 1.593c-.885.461-1.827.806-2.789 1.037-1.02.23-2.039.345-3.078.326a9.447 9.447 0 0 1-3.02-.556c-.981-.365-1.885-.883-2.655-1.575a7.405 7.405 0 0 1-1.981-2.744 10.673 10.673 0 0 1-.981-3.763c-.077-1.209 0-2.438.308-3.628.288-1.17.75-2.284 1.365-3.301a13.315 13.315 0 0 1 2.27-2.803 13.478 13.478 0 0 1 2.963-2.13 12.902 12.902 0 0 1 3.462-1.267c.039 0 .212-.02.539-.058a9.052 9.052 0 0 1 1.443 0 9.789 9.789 0 0 1 2.096.365c.885.25 1.732.614 2.52 1.056a12.21 12.21 0 0 1 2.694 2.053l-4.713 4.953-.02-.039Z" fill="#F7F7F7"/><path d="m67.481 50.272 13.947-.998-.789 6.546-6.348.25-.27 1.957 5.29-.326.347 5.279-5.328.326-.25 6.45-6.425.153-.174-19.617v-.02ZM98.414 49.889c.096 2.572.173 4.626.212 6.2.038 1.554.076 2.764.096 3.59 0 .844.019 1.4.019 1.67v.402a15.01 15.01 0 0 1-.23 2.937 7.538 7.538 0 0 1-.924 2.553 6.517 6.517 0 0 1-1.809 1.958c-.769.537-1.712.921-2.866 1.152-1.75.345-3.25.364-4.52.096-1.27-.27-2.309-.768-3.117-1.517a6.35 6.35 0 0 1-1.77-2.802 10.739 10.739 0 0 1-.5-3.743v-.25c0-.173 0-.518.02-1.056 0-.537.038-1.286.057-2.265 0-.979.058-2.265.097-3.896.057-1.632.115-3.609.173-5.932l7.213 1.267-.654 11.825c-.077.383-.057.786 0 1.17.039.25.135.5.231.73a.976.976 0 0 0 .731.576c.212.038.462-.173.731-.595.058-.096.116-.212.154-.308a4.63 4.63 0 0 0 .25-1.017 7.94 7.94 0 0 0 .077-1.785l-.52-9.655 6.849-1.267v-.038Z" fill="#FCE4C9"/><path d="m66.79 50.1 13.945-.998-.788 6.545-6.348.25-.27 1.958 5.29-.327.347 5.279-5.329.326-.25 6.45-6.425.153-.173-19.617v-.02ZM97.74 49.735c.097 2.572.174 4.626.212 6.18.039 1.556.077 2.765.096 3.61 0 .844.02 1.4.02 1.67v.403c.019.979-.058 1.977-.231 2.936a7.537 7.537 0 0 1-.924 2.553 6.52 6.52 0 0 1-1.808 1.958c-.77.538-1.712.922-2.866 1.152-1.75.346-3.251.365-4.52.096-1.27-.269-2.309-.768-3.117-1.516a6.35 6.35 0 0 1-1.77-2.803 10.739 10.739 0 0 1-.5-3.743v-.25c0-.172 0-.518.02-1.055 0-.538.038-1.286.057-2.265 0-.96.058-2.265.096-3.897.058-1.632.116-3.609.173-5.931l7.214 1.267-.654 11.824c-.077.384-.058.787 0 1.17.038.25.135.5.23.73a.975.975 0 0 0 .731.576c.213.039.463-.173.732-.595.058-.096.096-.211.154-.307.115-.326.211-.672.25-1.017a7.94 7.94 0 0 0 .077-1.786l-.539-9.655 6.848-1.248.02-.057Z" fill="#60547C"/><path d="m65.154 50.407 13.946-.998-.788 6.545-6.349.25-.269 1.958 5.29-.327.347 5.28-5.329.325-.25 6.45-6.425.154-.173-19.618v-.02ZM96.105 50.023c.096 2.572.173 4.626.212 6.2.038 1.555.077 2.764.096 3.609 0 .844.02 1.382.02 1.67v.403c0 .979-.058 1.977-.232 2.937a7.538 7.538 0 0 1-.923 2.553 6.298 6.298 0 0 1-1.808 1.958c-.77.537-1.712.92-2.866 1.151-1.75.346-3.251.365-4.52.096-1.27-.268-2.29-.768-3.117-1.516a6.35 6.35 0 0 1-1.77-2.803 10.739 10.739 0 0 1-.5-3.743v-.25c0-.172 0-.518.02-1.055 0-.538.038-1.286.057-2.265 0-.98.058-2.265.096-3.897.058-1.631.115-3.608.173-5.931l7.214 1.267-.654 11.824c-.077.384-.058.787 0 1.171.038.25.134.5.23.73.04.095.097.172.154.249a.975.975 0 0 0 .578.326c.211.039.461-.172.73-.595.058-.096.097-.21.154-.307.116-.326.212-.672.25-1.017.097-.595.116-1.19.078-1.785l-.54-9.675 6.85-1.267.018-.038Z" fill="#F7F7F7"/><path d="M64.385 74.535c.5.998.884 2.054 1.115 3.148.27 1.19.347 2.4.27 3.609a13.055 13.055 0 0 1-.828 3.82 13.247 13.247 0 0 1-2.173 3.743l1.173 1.132-3.732 3.705-1.308-1.785c-1.096.48-2.27.787-3.462.94a10.526 10.526 0 0 1-3.636-.172 8.806 8.806 0 0 1-3.309-1.517c-1.02-.748-1.827-1.785-2.424-3.11-.846-1.9-1.173-3.762-1.02-5.566.136-1.766.693-3.493 1.578-5.03a12.986 12.986 0 0 1 3.559-3.953 14.417 14.417 0 0 1 4.925-2.361 9.517 9.517 0 0 1 3.212-.27 8.849 8.849 0 0 1 2.712.711c.75.327 1.443.787 2.059 1.344.5.46.942.998 1.27 1.612h.019Zm-13.216 9.003c0 .806.116 1.459.346 1.958.193.46.52.844.924 1.132.384.25.827.403 1.289.403.5 0 .98-.057 1.462-.23l-.578-.787 2.116-3.09 1.308 1.286c.27-.5.5-1.018.655-1.555.134-.442.192-.902.211-1.363 0-.384-.02-.768-.115-1.133a4.743 4.743 0 0 0-.327-.92 2.449 2.449 0 0 0-1.078-1.172 2.897 2.897 0 0 0-1.5-.307 4.012 4.012 0 0 0-1.635.46 5.283 5.283 0 0 0-1.52 1.172 6.034 6.034 0 0 0-1.115 1.804 6.107 6.107 0 0 0-.443 2.342ZM83.41 72.155c.096 2.572.173 4.626.211 6.18.039 1.556.077 2.765.096 3.61 0 .844.02 1.4.02 1.67v.403c0 .979-.058 1.977-.231 2.937a7.538 7.538 0 0 1-.924 2.553 6.517 6.517 0 0 1-1.808 1.958c-.77.537-1.712.92-2.866 1.151-1.75.346-3.251.365-4.52.096-1.27-.269-2.31-.768-3.117-1.497a6.35 6.35 0 0 1-1.77-2.803 10.738 10.738 0 0 1-.5-3.743v-.25c0-.172 0-.517.02-1.055.019-.537.038-1.286.057-2.265 0-.979.058-2.265.096-3.897.058-1.631.116-3.608.173-5.93l7.214 1.266-.654 11.824c-.077.384-.058.787 0 1.171.038.25.135.5.23.73.04.096.097.172.155.25.154.172.365.287.577.325.211.039.462-.172.73-.595.058-.096.097-.21.155-.307.115-.326.211-.672.25-1.017a7.94 7.94 0 0 0 .077-1.785l-.539-9.656 6.848-1.266.02-.058ZM95.201 71.349l-1.038 20.366-6.637.768.25-20.232 7.406-.883.02-.02ZM99.299 92.81l6.136-14.82-7.368.48 1.405-6.603 18.736-.595-8.541 14.166 9.484-1.17-1.27 7.332-18.582 1.21Z" fill="#FCE4C9"/><path d="M63.596 74.631c.5.998.884 2.054 1.115 3.148.27 1.19.347 2.4.27 3.609a13.243 13.243 0 0 1-3 7.563l1.172 1.132-3.732 3.686-1.308-1.785c-1.096.48-2.27.787-3.462.921a11.013 11.013 0 0 1-3.636-.153 8.806 8.806 0 0 1-3.309-1.517c-1.02-.748-1.827-1.785-2.424-3.11-.846-1.9-1.173-3.762-1.02-5.566a12.226 12.226 0 0 1 1.578-5.03 12.987 12.987 0 0 1 3.559-3.953 14.413 14.413 0 0 1 4.925-2.361 9.515 9.515 0 0 1 3.212-.27 8.88 8.88 0 0 1 2.712.73c.75.326 1.443.787 2.059 1.344.5.46.942.998 1.27 1.593l.019.02ZM50.38 83.634c0 .806.115 1.459.346 1.958.193.46.52.844.924 1.132.384.25.827.384 1.288.403.5 0 .982-.057 1.462-.23l-.577-.787 2.116-3.09 1.309 1.286c.269-.5.5-1.018.654-1.555.134-.442.192-.902.211-1.363 0-.384-.02-.768-.115-1.133a5.455 5.455 0 0 0-.327-.94 2.45 2.45 0 0 0-1.078-1.171 2.897 2.897 0 0 0-1.5-.307 4.034 4.034 0 0 0-1.635.48 5.28 5.28 0 0 0-1.52 1.17 6.032 6.032 0 0 0-1.116 1.805 6.105 6.105 0 0 0-.442 2.342ZM82.601 72.232c.097 2.572.174 4.626.212 6.2.038 1.555.077 2.764.096 3.609 0 .844.02 1.4.02 1.67v.403c0 .979-.058 1.977-.231 2.937a7.538 7.538 0 0 1-.924 2.552 6.517 6.517 0 0 1-1.808 1.958c-.77.538-1.712.922-2.866 1.152-1.75.327-3.251.365-4.52.096-1.27-.269-2.31-.768-3.117-1.516a6.35 6.35 0 0 1-1.77-2.803 10.739 10.739 0 0 1-.5-3.743v-.25c0-.172 0-.518.02-1.055 0-.538.038-1.286.057-2.265 0-.98.058-2.265.096-3.897.058-1.631.115-3.609.173-5.931l7.214 1.267-.654 11.824c-.077.384-.058.787 0 1.17.038.25.135.5.23.73a.976.976 0 0 0 .731.576c.212.039.462-.173.732-.595.057-.096.096-.211.154-.307a4.63 4.63 0 0 0 .25-1.017 7.94 7.94 0 0 0 .077-1.785l-.539-9.675 6.848-1.267.02-.038ZM94.413 71.426l-1.04 20.366-6.636.748.25-20.231 7.406-.883h.02ZM98.49 92.905l6.137-14.819-7.367.48 1.404-6.603 18.736-.595-8.541 14.166 9.484-1.17-1.25 7.332-18.583 1.21h-.02Z" fill="#60547C"/><path d="M61.614 74.708c.5.998.885 2.054 1.116 3.148.27 1.19.366 2.4.27 3.609a13.704 13.704 0 0 1-.828 3.82A13.249 13.249 0 0 1 60 89.028l1.173 1.132-3.732 3.705-1.308-1.785c-1.096.48-2.27.787-3.462.94a10.523 10.523 0 0 1-3.636-.172 8.805 8.805 0 0 1-3.309-1.517c-1.02-.749-1.827-1.785-2.424-3.11-.846-1.9-1.173-3.762-1.02-5.566.136-1.766.693-3.494 1.578-5.03a12.986 12.986 0 0 1 3.559-3.954 14.415 14.415 0 0 1 4.925-2.36c1.038-.27 2.135-.365 3.212-.27a8.85 8.85 0 0 1 2.712.71c.75.327 1.443.788 2.059 1.345.5.46.942.998 1.27 1.593l.019.019ZM48.4 83.711c0 .806.115 1.458.346 1.957.193.461.52.845.924 1.133.384.25.827.384 1.289.403.5 0 .98-.057 1.462-.23l-.578-.787 2.116-3.09 1.309 1.285c.269-.499.5-1.017.653-1.554.135-.442.193-.903.212-1.363 0-.384-.02-.768-.115-1.133a5.442 5.442 0 0 0-.327-.94 2.45 2.45 0 0 0-1.078-1.171 2.897 2.897 0 0 0-1.5-.307 4.012 4.012 0 0 0-1.635.46 5.281 5.281 0 0 0-1.52 1.171 5.67 5.67 0 0 0-1.115 1.805 6.105 6.105 0 0 0-.443 2.341v.02ZM80.62 72.328c.096 2.572.173 4.626.212 6.2.038 1.555.077 2.764.096 3.59 0 .844.019 1.4.019 1.67v.403a15 15 0 0 1-.23 2.936 7.54 7.54 0 0 1-.924 2.553 6.518 6.518 0 0 1-1.808 1.958c-.77.538-1.713.922-2.867 1.152-1.75.326-3.25.365-4.52.096-1.27-.269-2.309-.768-3.117-1.516a6.35 6.35 0 0 1-1.77-2.803 10.739 10.739 0 0 1-.5-3.743v-.25c0-.172 0-.518.02-1.055 0-.538.038-1.287.058-2.265.019-.98.057-2.266.096-3.897.057-1.632.115-3.609.173-5.931l7.213 1.266-.654 11.825c-.077.384-.057.787 0 1.17.039.25.135.5.231.73.039.096.096.173.154.25.154.172.366.288.577.326.212.038.462-.173.731-.595.058-.096.096-.211.154-.307a4.63 4.63 0 0 0 .25-1.018c.096-.595.116-1.19.077-1.785l-.52-9.674 6.83-1.248.019-.038ZM92.431 71.522l-1.039 20.366-6.636.748.25-20.231 7.406-.883h.02ZM96.51 92.982l6.136-14.819-7.368.48 1.405-6.584 18.736-.595-8.541 14.166 9.483-1.17-1.269 7.332-18.582 1.21v-.02Z" fill="#F7F7F7"/><mask id="b" style="mask-type:luminance" maskUnits="userSpaceOnUse" x="0" y="0" width="70" height="104"><path d="M69.194 0H0v104h69.194V0Z" fill="#fff"/></mask><g mask="url(#b)"><path d="M40.262 8.83s6.867 4.434 8.637 10.327c8.272-4.338 2.366-11.575 2.366-11.575-5.098-4.319-8.81-1.843-11.003 1.248Z" fill="#5F5F82"/><path d="M30.759.845s-.904 4.722-14.139 7.217C6.83 10.557 4.04 30.847 4.04 30.847c-.905.422-.116 15.701 10.599 17.199 3.886-.691 11.08 2.418 11.08 2.418s12.119-.403 14.735-1.938c2.616-1.536 15.158-1.766 11.234-17.68.231-11.21-5.194-20.884-12.1-22.496 2.54-.288 2.52-4.799 2.52-4.799.02.23-2.366.96-5.347.806-.712-.038-2.097.365-2.693-.057-.808-.557-.77-1.977-1.443-2.553a4.301 4.301 0 0 0-1.847-.922l-.019.02Z" fill="#F7F7F7"/><path d="M11.08 48.775S1.674 51.942 5.08 65.034c5.674 7.505 15.177 2.265 15.177 2.265s8.849 2.476 8.214-5.106c.231-5.183-4.732-4.204-4.732-4.204 0 .173-.096-4.434-4.001-1.037-1.712-6.91-8.657-8.177-8.657-8.177ZM40.762 46.203s-1.674 3.167 3.212 5.989c.462 1.727.712 3.513.75 5.298l7.176-.211-.327-5.893s1.173-8.6-5.906-8.696c-3.75-.192-4.924 3.494-4.924 3.494l.019.019ZM26.816 50.541l7.771-.518-.134 4.645-7.637-4.127ZM16.409 11.402c.115.288-.635 2.803-2.097 5.298-1.115 2.035-3.847 4.453-4.886 4.55a9.499 9.499 0 0 1-1.808 0c-8.637-.807-8.253-11.096-5.54-13.457 0 0 5.31-5.624 9.849-2.303 4.559 3.32 4.463 5.912 4.463 5.912h.019ZM62.076 66.857c1.173.614 3.097-.441 4.309-1.344 2.135-1.612 2.75-4.357 2.5-6.795-.192-1.842-.788-3.8-2.077-5.278a4.717 4.717 0 0 0-3.078-1.651c-3.905-.365-4.982 4.568-4.982 4.568s1.731 1.19 3.309 10.5h.019ZM33.914 96.975s1.789 5.95-3.944 6.334c-6.367.288-10.887 1.017-10.926-3.244-.02-2.783 1.481-3.8 1.481-3.8s4.502-1.46 6.926 1.055c3.077-.153 6.463-.345 6.463-.345Z" fill="#5F5F82"/><path d="M39.185 31.538c-.02.902-1.231 1.65-2.713 1.593-1.48-.038-2.75-.921-2.712-1.823 0-.23.058-.442.154-.653a1.28 1.28 0 0 1 .442-.518c.5-.327 1.328-.404 2.136-.365.885.02 1.866.23 2.347.652.327.27.365.75.346 1.114ZM38.82 34.993c-2.078-.403-4.368 0-5.291 2.111-.23.48-.25 1.037-.077 1.555.116.288.27.538.5.749.212.211.481.384.75.499 1.116.442 2.328-.173 3.136-.921.327-.307.616-.653.866-1.018.461-.672.673-1.67 1.673-1.65.173 0 .327.076.5.057.577-.096-.269-.672-.423-.768a5.184 5.184 0 0 0-1.654-.595l.02-.019Z" fill="#152360"/><path d="M18.64 37.565c-1.308 0-2.578-.537-3.52-1.44a5.128 5.128 0 0 1-1.577-3.455c-.135-2.533.442-6.545 4.809-9.194 2.231-1.344 4.886-2.572 7.579-2.38 1.366.096 2.366.671 3.25 1.689a9.905 9.905 0 0 1 1.751 2.764c.885 2.15.674 4.472-.461 6.488a5.176 5.176 0 0 1-1.924 1.939c-2.328 1.363-3.636 1.075-5.329 2.322-.942.691-2.77 1.267-4.578 1.248v.02ZM44.686 22.132s-.057-.038-.096-.038c-.442-.154-3.443-1.114-4.905 1.842-1.116 2.285.211 5.375 1.058 6.95.346.652.904 1.17 1.577 1.458 2.212.979 7.349 2.937 7.81.096.597-3.609-1.154-8.273-5.424-10.308h-.02Z" fill="#5F5F82"/><path d="M44.456 24.916a2.49 2.49 0 0 0-.808-.807c-1.27-.748-2.886-.077-3.328 1.325-.443 1.401-.346 2.975 1.212 4.223a2.015 2.015 0 0 0 2.655-.115c.384-.384.673-.845.827-1.363a3.193 3.193 0 0 0 .076-1.593 4.305 4.305 0 0 0-.634-1.67ZM29.855 25.798a3.054 3.054 0 0 0-.808-1.151c-1.366-1.171-3.482-.691-4.309.902s-1.058 3.532.558 5.355c.404.442.942.73 1.539.807a2.412 2.412 0 0 0 1.693-.403c.538-.365 1-.884 1.289-1.46a3.89 3.89 0 0 0 .442-1.9c0-.73-.135-1.478-.404-2.15Z" fill="#152360"/><path d="m51.92 57.279 4.193-.864 2.366-.422s5.02 8.33 3.809 12.38a82.372 82.372 0 0 1-2.04 1.498s-5.886 6.046-13.926 6.258c-6.83 3.147-11.6 17.582-11.6 17.582v2.841l-7.098.422-7.81-1.497-1.328-5.49v-9.175l1.443-1.21L51.92 57.26v.02Z" fill="#EDEDF2"/><path d="m14.889 69.045 1.654 7.62-2.558 4.34 2.635 1.803 2.847-3.685 1.558 4.07S33.01 87.3 41.666 77.874C55.343 67.491 51.92 57.28 51.92 57.28s-13.196 1.631-26.854-7.103c-7.848-3.32-14.043-1.478-14.043-1.478 4.136 1.095 7.214 3.398 8.464 7.832 0 0 3.732-3.09 4.617 1.075 1.866.173 5.925 1.517 4.405 6.968-1.27 4.607-7.983 2.4-7.963 2.783l-5.656 1.67v.02Z" fill="#D1E0FF"/><path d="M34.799 49.984v4.665s8.04 2.706 9.733 2.342c.174-1.248-.788-4.76-.788-4.76s-3.309-2.15-3.136-3.475c-5.309 1.094-5.81 1.228-5.81 1.228Z" fill="#D1E0FF"/><path d="M41.993 28.236c.5-.134.75-.787.558-1.44-.192-.671-.73-1.093-1.231-.96-.5.135-.75.788-.558 1.44.173.672.731 1.095 1.231.96ZM29.586 27.91c.057-.787-.366-1.44-.943-1.497-.577-.039-1.096.537-1.173 1.324-.058.768.365 1.44.942 1.497.577.039 1.097-.537 1.174-1.324Z" fill="#E8E8EA" stroke="#383838" stroke-width=".02" stroke-miterlimit="10"/><path d="M19.506 95.266s-1.058-1.804-.058-2.419c.693.27 1.5.365 2.212.5 1.385.268 2.79.48 4.194.633 2.366.269 5.694.921 7.444-1.133.654-.767 3.482-7.466 3.963-8.35.962-1.727 2.27-3.243 3.463-4.798 1.462-1.92 3.655-3.551 5.982-4.645 1.962-.922 4.117-1.306 6.156-2.054 1.962-.73 3.924-1.862 5.31-3.436 1.153-1.325 1.076-3.57.961-5.202.692 1.574 1.212 4.242 1.212 5.49-.077.134-4.059 4.78-12.965 6.008-6.233 2.514-9.446 10.02-9.446 10.02l-1.789 3.935c-.923.115-1.73 6.737-1.442 6.776.884.134-6.945.441-6.945.441s-6.52-1.708-8.29-1.747l.038-.019Z" fill="#000"/><path opacity=".3" d="M18.89 92.944s-.404 2.169.404 2.63c.808.46 6.252.364 7.098 1.247.943.173 7.772-.038 7.772-.038-.154.172 1.02-1.229.384-2.457-2.693.844-15.639-1.402-15.639-1.402l-.019.02Z" fill="#313147"/><path d="m61.153 62.365.904 4.742s10.272-.73 5.405-11.997c1.943 8.676-5.194 8.638-5.79 8.12M19.275 100.929s3.597 1.862 8.637.748c5.06-1.113 4.694-4.837 4.694-4.837l1.385.173s.923 4.837-1.635 5.797c-2.559.96-11.196 1.881-12.658-.634-.327-.383-.423-1.228-.423-1.228v-.019Z" fill="#000072" opacity=".3"/><path opacity=".3" d="M56.055 56.28c.981 1.44 3.29 6.7 4.155 11.978.077.404.116.826.096 1.229a3.108 3.108 0 0 0 1.116-.653c.327-.288.577-.652.75-1.056 0 0-.75-7.294-3.424-11.46-2.539-.325-3-.325-2.693-.057v.02Z" fill="#313147"/><path d="M40.608 46.702c-.057.115.116 1.305-.519 1.804-2.597 2.074-10.176 2.88-14.235 1.498a20.793 20.793 0 0 0-3.424-.864c-7.233-.135-12.83-2.303-15.255-6.354a1.69 1.69 0 0 0-.115-.192c2.424 4.511 22.815 7.678 33.548 4.108Z" fill="#DFE6F2"/><path d="M.558 11.901c-.385 1.977 1.75 8.734 11.561 7.505-.154.288-1.385 1.133-1.577 1.325C7.29 23.034-.711 18.946.558 11.9Z" fill="#43437E" opacity=".5"/><path d="M38.3 30.828c0 .153.096.403-1.443.345-1.5-.038-1.423-.269-1.423-.441 0-.173.654-.27 1.443-.25.788.02 1.423.173 1.423.326v.02Z" fill="#FCFCFC" stroke="#212121" stroke-width=".02" stroke-miterlimit="10"/><path d="M34.645 37.124s-.847.748-.308 1.459c.173.23.423.383.712.48.288.076.577.076.865 0 .366-.116.693-.154.616-.538-.077-.384-.27-1.133-1.885-1.382v-.02Z" fill="#EBA2AF"/><path d="M20.18 67.683c-.155.115-.52.172-.712.25-.828.268-1.674.479-2.54.652-2.308.46-4.828.652-7.117 0-1.097-.307-2.328-.826-3.078-1.593-3.27-3.782-2.616-6.815-2.616-6.815 1.058 2.592 2.808 5.145 5.925 6.335 1.308.499 3.308.46 4.713.46 1.73 0 3.405-.48 5.117-.787.115.423.288.845.48 1.229.077.21-.038.211-.154.288l-.019-.02Z" fill="#000072" opacity=".3"/><path d="M19.41 65.302s.673 2.112 1 2.342c.481.058 6.714.787 7.887-3.436-3.77 3.763-8.906 1.114-8.906 1.114l.019-.02ZM42.34 51.175c-.212-.288-.732-.365-.809-.71-.076-.346-.346-.71-.269-1.056 0 0 5.463 5.624 10.08 1.055.193.672 0 1.018 0 1.018s-2.385 2.418-6.444 1.727c-.981-.556-1.712-1.286-2.578-2.034h.02Z" fill="#000072" opacity=".3"/><path d="M44.07 53.69s.924 2.82.559 3.397c.827.288 4.616.23 4.616.23.193-1.44-.019-3.36-.827-4.05-1.346.576-2.75.557-4.347.441v-.019Z" fill="#000072" opacity=".3"/><path d="M52.535 11.402s.212 4.396-4.059 5.164c1.135.998 1.443 1.88 1.443 1.88s4.77-3.57 2.616-7.063v.019Z" fill="#43437E" opacity=".5"/><path d="M49.38 18.811c2.693-1.766 3.982-4.894 3.058-7.947-.654-2.38-2.616-4.414-5.04-5.01-2.539-.633-5.097.71-6.848 2.534 2.386-3.436 6.58-4.549 10.003-1.842 4.175 3.34 3.886 9.981-1.173 12.265Z" fill="#000072"/><path d="M40.204 48.89c-.558.307-9.387 2.17-14.485 1.555" stroke="#000072" stroke-width=".44" stroke-linecap="round" stroke-linejoin="round"/><path d="M15.851 73.844s.038-.038.173-.038c.481 0 .962-.039 1.443-.115l1.558-.173a56.053 56.053 0 0 0 1.77-.25c.538-.076 1.115-.25 1.654-.25a70.572 70.572 0 0 0 12.985-3.378c2.828-1.055 5.482-2.495 7.675-4.415a16.09 16.09 0 0 0 3.078-3.57 8.21 8.21 0 0 0 1.193-3.09c.038-.288.057-.576.057-.864 0-.058.02-.115.058-.134a.218.218 0 0 1 .154-.058h.212c.25 0 .134-.038.384-.038.866.038.154 2.342.039 2.745-1.25 4.184-4.848 7.39-8.81 9.732-3.752 2.226-8.041 3.608-12.408 4.53-1.962.422-3.944.73-5.944.979-1.655.21-3.347.384-5.02.345h-.04c-.019 0 0 0-.019-.038-.038-.423-.096-.845-.134-1.267-.02-.192-.116-.442-.077-.634v-.057l.019.038Z" fill="#EDEDF2" stroke="#000072" stroke-width=".26" stroke-linejoin="round"/><path opacity=".24" d="M15.85 74.17s.04-.038.174-.038c.48 0 .962-.038 1.443-.115l1.558-.173a56.052 56.052 0 0 0 1.77-.25c.538-.076 1.115-.249 1.654-.249a70.58 70.58 0 0 0 12.985-3.378c2.827-1.056 5.501-2.496 7.675-4.415A16.436 16.436 0 0 0 46.187 62a8.21 8.21 0 0 0 1.192-3.09c.058-.365.039-.73.058-1.095.135.02.27.039.423.02.25 0 .135-.039.385-.02.866.039.154 2.342.038 2.745-1.25 4.185-4.847 7.39-8.81 9.732-3.75 2.227-8.04 3.609-12.407 4.53-1.962.423-3.944.73-5.944.98-1.655.21-3.348.402-5.021.345h-.039v-.039c-.038-.422-.096-.844-.134-1.247-.02-.192-.116-.442-.077-.634v-.057Z" stroke="#000072" stroke-width=".17" stroke-linejoin="round"/><path d="M13.985 48.027C6.58 48.449 2.54 58.795 4.56 63.959c.731 1.88 2.405 3.436 4.463 4.338 1.347.595 4.636.768 5.617.576.789.288.462 1.382.577 2.034.366 1.94.885 3.801 1.328 5.74v.153c0 .058-.039.096-.058.154l-2.347 3.455a.977.977 0 0 0-.135.326c-.019.115-.019.23 0 .346.02.115.077.23.135.307a.941.941 0 0 0 .25.23l1.597 1.018c.115.077.25.134.384.153.135.02.27 0 .404 0 .135-.038.27-.096.366-.172a.822.822 0 0 0 .27-.308l1.557-2.956s.116-.134.193-.172a.593.593 0 0 1 .25-.058c.096 0 .173.038.25.096.077.058.115.134.154.211l1.02 3.474a.75.75 0 0 0 .192.308.614.614 0 0 0 .307.172c1.77.576 9.926 2.61 17.429-2.975a53.977 53.977 0 0 0 9.887-9.52c3.059-3.84 4.27-8.658 3.193-13.303 0-.058-.038-.115-.076-.154-.039-.038-.078-.077-.135-.115l-.173-.057h-.173c-2.405.652-11.523.652-20.93-4.569-7.81-4.319-13.407-4.837-16.37-4.664Z" stroke="#000072" stroke-width=".44" stroke-linejoin="round"/><path d="M51.881 57.567c1.25-.94 2.443-1.152 4.078-1.095 1.077-.383 1.924-.729 2.655-.21.154.115.269.249.365.422 2.597 5.086 3.194 8.407 3.328 10.596v.095c-.02 1.21-.789 1.94-1.635 2.285a1.858 1.858 0 0 0-.77.614c-.98 1.305-5.02 4.184-11.522 5.567-5.752 1.228-9.445 7.16-11.504 12.592-.73 1.92-1.654 3.57-1.942 5.01a2.809 2.809 0 0 0 0 1.132c.096.48.077.998-.077 1.459a1.08 1.08 0 0 1-.404.557 1.343 1.343 0 0 1-.654.23l-6.271.173c-.385 0-.75-.115-1.078-.307-1.692-1.037-4.943-.365-6.425-1.094-.77-.384-.827-1.517-.788-2.17a3.24 3.24 0 0 0-.116-1.055c-1.25-4.242-1.154-6.411-.327-11.134.02-.153.096-.287.173-.422l.75-1.19M20.333 67.51c1.366.134 2.77.345 4.155.096 1.077-.192 2.174-.653 2.982-1.401a3.716 3.716 0 0 0 1.173-2.4c.212-1.823.154-3.781-1.212-5.163-.788-.807-1.75-.941-2.828-.768-.057 0-.827.153-.827.115.5-1.152-.173-2.15-1.308-2.4a2.424 2.424 0 0 0-1.173.058c-.385.115-.731.346-1 .634a4.955 4.955 0 0 0-.79 1.094" stroke="#000072" stroke-width=".44" stroke-linejoin="round"/><path d="M19.525 57.279c-.962 2.169-2.04 7.351 1.02 10.288" stroke="#000072" stroke-width=".44" stroke-linejoin="round"/><path d="M19.756 57.394c-1.79-.595-3.655-1.229-5.56-1.21-.269 0-.538.077-.788.173 1-.518 2.212-.384 3.29-.326 1.115.115 2.211.288 3.308.518l-.25.826v.019Z" fill="#000072"/><path d="M34.453 54.265V50.1" stroke="#000072" stroke-width=".44" stroke-linecap="round" stroke-linejoin="round"/><path d="M41.09 46.05c.095-1.267.615-1.767 1.384-2.38 0 0 4.944-3.917 8.464 2.629 1.405 3.32.558 5.355.558 5.355s.75 2.841.231 5.28" stroke="#000072" stroke-width=".44" stroke-linejoin="round"/><path d="M44.725 57.01s-.27-3.033-.789-4.492c-.384-1.094-4.155-1.977-3.347-5.662" stroke="#000072" stroke-width=".44" stroke-linecap="round" stroke-linejoin="round"/><path d="M62.153 67.241a7.3 7.3 0 0 0 4.27-1.459c2.251-1.631 2.52-4.242 2.251-6.699a12.868 12.868 0 0 0-1.27-4.453 4.624 4.624 0 0 0-1.134-1.517 4.833 4.833 0 0 0-1.635-.96 3.998 3.998 0 0 0-1.04-.21c-4.135-.384-4.674 4.875-4.674 4.875M33.914 96.648s1.789 6.258-3.944 6.661c-6.367.307-10.887 1.075-10.926-3.398-.02-2.917 2.116-3.915 2.116-3.915" stroke="#000072" stroke-width=".44" stroke-linejoin="round"/><path d="M44.802 52.864c1.77.46 3.731.307 5.328-.614a6.21 6.21 0 0 0 1.462-1.19 6.466 6.466 0 0 1-1.346 1.362 7.16 7.16 0 0 1-3.636 1.325 8.694 8.694 0 0 1-2-.058c-.059 0-.116-.038-.155-.057-.038-.02-.077-.077-.115-.116a.218.218 0 0 1-.058-.153v-.173c0-.057.039-.115.077-.153a.833.833 0 0 1 .135-.116c.057-.019.096-.038.154-.057h.173-.02Z" fill="#000072"/><path d="M20.352 67.49c-1.423.423-3.905 1.248-5.713 1.402" stroke="#000072" stroke-width=".45" stroke-linejoin="round"/><path d="M10.484 48.718c4.713.671 8.08 3.09 9.233 7.85l-.846.173a11.07 11.07 0 0 0-.923-2.898c-1.5-2.995-4.29-4.415-7.464-5.106v-.02Z" fill="#000072"/><path d="M23.68 75.226c.116.73-2.27 2.4-2.635 3.379-.674 1.766.288 2.84 1.5 3.762 1.116 1.382.443 2.649-.173 3.436 0 0-.02 0-.038.02h-.039s-.02 0-.038-.02v-.038c.038-.653-.327-1.325-.424-1.498v-.076c1.424-1.882.212-4.224-.404-4.972a2.969 2.969 0 0 1-.365-.691 1.83 1.83 0 0 1 0-1.018c.135-.345.346-.671.616-.94.365-.442.711-.902 1.019-1.382.212-.307.442-.614.654-.94l.308.94.02.038Z" fill="#EFEFEF" stroke="#000072" stroke-width=".15" stroke-linejoin="round"/><path d="M22.641 73.806v1.036c-.019.212 0 .423.039.634.077.25.173.48.327.69a9.411 9.411 0 0 0 1.654 1.728c.442.365.77.73.846 1.267.135.903-.346 1.824-.846 2.592a6.372 6.372 0 0 1-.616.806c-.096.115-.192.211-.269.307 0 0-1.173 1.708.423 3.244.077.077.231 0 .193-.096-.154-.46-.366-1.017.115-1.939v-.057c0-.02 0-.039-.038-.058-.616-.537-1.693-1.574-.424-3.378a5.266 5.266 0 0 0 .847-1.747 4.32 4.32 0 0 0 .038-1.113c0-.25-.019-.48-.077-.73a2.8 2.8 0 0 0-.307-.69 8.687 8.687 0 0 0-.578-.884 18.516 18.516 0 0 0-1.384-1.65l.057.038Z" fill="#EFEFEF" stroke="#000072" stroke-width=".14" stroke-linejoin="round"/><path d="m20.256 74.075 1.981-1.728 2.501-.192s1.25 2.975-1.366 3.57c-2.616.595-3.135-1.65-3.135-1.65h.02Z" fill="#EFEFEF" stroke="#000072" stroke-width=".23" stroke-linejoin="round"/><path d="M23.545 75.821c-.519-.384-1.327-.844-1.404-1.44a5.154 5.154 0 0 1-.058-.767c0-.365-.038-.73-.038-1.094" stroke="#000072" stroke-width=".18" stroke-linejoin="round"/><path opacity=".15" d="M22.834 75.821c-.347-.307-.866-.671-.924-1.132 0-.211-.038-.403-.038-.614 0-.288 0-.576-.02-.883l.404-.27.154 1.748.77 1.113-.366.038h.02Z" fill="#313147" stroke="#000072" stroke-width=".09" stroke-linejoin="round"/><path d="M13.985 48.027S-.77 44.226 6.059 21.077" stroke="#000072" stroke-width=".44" stroke-linejoin="round"/><path d="M41.743 3.513c-.635.806-1.327 1.094-2.308.979a13.214 13.214 0 0 0-5.617.345h-.077c-.02 0-.02-.019-.02-.038V4.76c-.019-.575-.269-2.994-2.462-4.107a.357.357 0 0 0-.134-.039c-.058 0-.097 0-.135.02-.039 0-.077.038-.116.076a.402.402 0 0 0-.076.115c-.654 1.824-2.174 3.187-3.81 4.108-1.692.96-3.635 1.344-5.54 1.747-2 .46-3.962 1.17-5.809 2.073" stroke="#000072" stroke-width=".44" stroke-linecap="round" stroke-linejoin="round"/><path d="M36.76 8.945c2.251-.5 3.925-1.305 4.771-3.551.25-.691.443-1.382.578-2.112.923 3.456-1.809 6.47-5.348 5.663Z" fill="#000072"/><path d="M49.476 43.784c3.213-2.092 3.347-8.062 2.54-11.152a14.792 14.792 0 0 1-.443-3.052c-.115-3.129-.789-6.872-1.116-8.465a10.771 10.771 0 0 0-.558-1.9c-.923-2.342-4.424-8.907-9.656-11.172" stroke="#000072" stroke-width=".44" stroke-linejoin="round"/><path d="M10.215 21c-.712.46-1.616.422-2.443.422a8.25 8.25 0 0 1-4.617-1.804C-.346 16.91-.962 11.728 1.462 8.1c1.404-2.169 3.809-3.704 6.406-3.954 2.635-.269 5.174 1.19 6.771 3.206.789.998 1.443 2.111 1.712 3.359.077.403.212.845.077 1.248v.019H16.37v-.038c.077-.404-.115-.787-.211-1.171a5.63 5.63 0 0 0-.5-1.095c-1.174-2.053-3.06-3.858-5.367-4.51-3.059-.845-6.522.71-8.272 3.282-2.424 3.378-1.905 8.273 1.327 10.903a7.928 7.928 0 0 0 4.425 1.9c.788.039 1.692.096 2.385-.326H10.215V21Z" fill="#000072"/><path d="M16.428 11.632c-.789 3.34-2.52 6.584-5.29 8.677-.385.307-.808.556-1.212.844.404-.288.808-.556 1.174-.883 2.693-2.169 4.386-5.336 5.328-8.638ZM24.258 57.835c-.27.442-.674.787-1.136.98-.461.191-1 .23-1.5.095.327 0 .635-.096.923-.25.289-.153.52-.383.693-.652a2.12 2.12 0 0 0 .23-.518l.79.345ZM40.224 46.51c.538-.883 1.673-1.708 2.712-1.17.904.46 1.5 1.477 1.308 2.456a1.957 1.957 0 0 1-.365.845c-.193.25-.443.441-.731.576 1.057-.614 1.154-2.189.25-2.956-.982-.922-1.886-.423-2.405.652-.02.058-.058.096-.096.154a.42.42 0 0 1-.154.096c-.058.019-.116.019-.173.019a.31.31 0 0 1-.173-.058.259.259 0 0 1-.135-.115c-.038-.038-.058-.096-.077-.153v-.173c0-.058.038-.115.058-.173h-.02Z" fill="#000072"/><path d="M44.032 48.257c1.327.806 3.078.96 4.482.269a4.643 4.643 0 0 1-1.693.69 5.27 5.27 0 0 1-3.116-.383l.327-.576Z" fill="#000072"/><path d="M41.204 20.596s.058-.096 0-.134a6.05 6.05 0 0 0-1.308.25 2.706 2.706 0 0 0-.942.595c-.25.25-.558.537-.385.921a.47.47 0 0 0 .173.211.615.615 0 0 0 .27.058.525.525 0 0 0 .23-.115.469.469 0 0 0 .173-.212c.116-.172.231-.326.347-.48.154-.172.307-.326.5-.46.154-.115.308-.192.462-.288.173-.096.327-.211.48-.346ZM28.566 20.539s-.057-.096 0-.134c.443.038.885.115 1.308.25.347.133.674.325.943.594.25.25.558.538.385.922a.47.47 0 0 1-.174.21.615.615 0 0 1-.269.058.525.525 0 0 1-.23-.115.468.468 0 0 1-.174-.211c-.115-.173-.23-.326-.346-.48a2.85 2.85 0 0 0-.5-.46c-.154-.116-.308-.192-.462-.288a2.192 2.192 0 0 1-.48-.346Z" fill="#02026E"/><path d="M18.91 92.828s.019.039.038.039c.308.096.616.172.924.21 1 .174 2 .327 3 .48 3.328.48 6.695.922 10.061.96.673 0 1.347-.019 2.02-.115-1.327.288-2.693.327-4.04.288a52.042 52.042 0 0 1-8.08-.902c-1-.192-2-.384-2.98-.653a7.085 7.085 0 0 1-.905-.288s-.038-.019-.038-.038v.02Z" fill="#000072"/><path d="M19.006 94.057c.558.115 1.423.153 2 .211 1.347.096 2.694.307 4.02.46 1.347.154 4.675.135 6.06.173h2.02c.577-.019 1.173 0 1.731-.21a.273.273 0 0 0 .173-.154h.039s-.096.153-.173.21c-.539.289-1.154.327-1.75.404-2.04.192-4.079.058-6.099-.134-2.02-.25-4.059-.154-6.06-.48-.672-.115-1.365-.173-2-.442v-.038h.039Z" fill="#000072"/><path d="M19.121 94.23c-.154.23 12.908 2.188 15.85 1.209" stroke="#000072" stroke-width=".17" stroke-linejoin="round"/><path d="M26.412 96.36c.75-.096 1.5-.134 2.231-.134.75.058 1.5.038 2.232-.058 1.27-.21 3.135-.441 4.424-.595v.039a10.309 10.309 0 0 1-3.29.71c-.75.077-1.5 0-2.25.077-.75.057-1.5.192-2.25.134-.385 0-.75-.058-1.116-.115v-.039l.019-.019ZM60.21 69.506a.715.715 0 0 0 .058-.403 6.995 6.995 0 0 0-.193-1.248A51.93 51.93 0 0 0 58.69 63a64.976 64.976 0 0 0-2.404-6.277.284.284 0 0 1 0-.25.42.42 0 0 1 .173-.191c.077-.039.173-.058.25-.02.077.02.154.077.211.154a50.156 50.156 0 0 1 2.905 6.066 52.432 52.432 0 0 1 2.135 6.353l-.769.135c-.423-4.434-1.789-8.811-3.751-12.823a.174.174 0 0 1 0-.192.257.257 0 0 1 .135-.153.175.175 0 0 1 .192 0c.058.019.115.057.154.134l1.115 2.13c.731 1.44 1.462 2.88 2.117 4.339.346.73.615 1.497.827 2.284h-.039c-.23-.768-.52-1.497-.885-2.227-1.038-2.169-2.231-4.28-3.385-6.392l.057-.038c2.078 4.012 3.482 8.408 3.944 12.9v.038H61.614v-.02c-1.192-4.26-2.77-8.445-4.944-12.323l.058-.038a64.796 64.796 0 0 1 3.193 9.616c.212.826.366 1.651.462 2.496 0 .288.077.576-.077.844l-.038-.038h-.058Z" fill="#000072"/><path d="M27.104 30.098c.27-.115.327-.518.154-.883-.173-.364-.52-.556-.788-.441-.27.115-.327.518-.154.883.173.364.52.556.788.441ZM43.282 28.716c.25.077.539-.134.654-.46.115-.346 0-.692-.23-.768-.25-.077-.54.134-.655.46-.115.346 0 .691.231.768Z" fill="#000"/></g></g><defs><clipPath id="a"><path fill="#fff" d="M0 0h130v104H0z"/></clipPath></defs></svg>